<mxfile host="app.diagrams.net" modified="2024-05-02T14:54:28.076Z" agent="Mozilla/5.0 (Windows NT 10.0; Win64; x64) AppleWebKit/537.36 (KHTML, like Gecko) Chrome/122.0.0.0 Safari/537.36" etag="57DFmKegRZDBczdOcoHY" version="24.3.1" type="device" pages="2">
  <diagram name="Trang-1" id="ItDyWzUYPclgY7fC0HL_">
    <mxGraphModel dx="1466" dy="658" grid="1" gridSize="10" guides="1" tooltips="1" connect="1" arrows="1" fold="1" page="1" pageScale="1" pageWidth="827" pageHeight="1169" math="0" shadow="0">
      <root>
        <mxCell id="0" />
        <mxCell id="1" parent="0" />
        <mxCell id="Qg1xLCZv4WdGo1XyeDYa-3" value="&lt;span style=&quot;text-wrap: nowrap;&quot;&gt;Nhập vào 1 số nguyên n, in ra bình phương của n&lt;/span&gt;" style="text;html=1;align=center;verticalAlign=middle;whiteSpace=wrap;rounded=0;" vertex="1" parent="1">
          <mxGeometry x="330" y="20" width="60" height="30" as="geometry" />
        </mxCell>
        <mxCell id="YFhJPpaUMN8Xlp2QYYdG-4" value="" style="edgeStyle=orthogonalEdgeStyle;rounded=0;orthogonalLoop=1;jettySize=auto;html=1;" edge="1" parent="1" source="Qg1xLCZv4WdGo1XyeDYa-4" target="hUHWAihPGgJDbmDWPLsX-1">
          <mxGeometry relative="1" as="geometry" />
        </mxCell>
        <mxCell id="Qg1xLCZv4WdGo1XyeDYa-4" value="START" style="ellipse;whiteSpace=wrap;html=1;" vertex="1" parent="1">
          <mxGeometry x="300" y="80" width="120" height="80" as="geometry" />
        </mxCell>
        <mxCell id="YFhJPpaUMN8Xlp2QYYdG-5" value="" style="edgeStyle=orthogonalEdgeStyle;rounded=0;orthogonalLoop=1;jettySize=auto;html=1;" edge="1" parent="1" source="hUHWAihPGgJDbmDWPLsX-1" target="YFhJPpaUMN8Xlp2QYYdG-1">
          <mxGeometry relative="1" as="geometry" />
        </mxCell>
        <mxCell id="hUHWAihPGgJDbmDWPLsX-1" value="INPUT n" style="shape=parallelogram;perimeter=parallelogramPerimeter;whiteSpace=wrap;html=1;fixedSize=1;" vertex="1" parent="1">
          <mxGeometry x="300" y="200" width="120" height="60" as="geometry" />
        </mxCell>
        <mxCell id="YFhJPpaUMN8Xlp2QYYdG-6" value="" style="edgeStyle=orthogonalEdgeStyle;rounded=0;orthogonalLoop=1;jettySize=auto;html=1;" edge="1" parent="1" source="YFhJPpaUMN8Xlp2QYYdG-1" target="YFhJPpaUMN8Xlp2QYYdG-2">
          <mxGeometry relative="1" as="geometry" />
        </mxCell>
        <mxCell id="YFhJPpaUMN8Xlp2QYYdG-1" value="result = n*n" style="rounded=0;whiteSpace=wrap;html=1;" vertex="1" parent="1">
          <mxGeometry x="300" y="300" width="120" height="60" as="geometry" />
        </mxCell>
        <mxCell id="YFhJPpaUMN8Xlp2QYYdG-7" value="" style="edgeStyle=orthogonalEdgeStyle;rounded=0;orthogonalLoop=1;jettySize=auto;html=1;" edge="1" parent="1" source="YFhJPpaUMN8Xlp2QYYdG-2" target="YFhJPpaUMN8Xlp2QYYdG-3">
          <mxGeometry relative="1" as="geometry" />
        </mxCell>
        <mxCell id="YFhJPpaUMN8Xlp2QYYdG-2" value="OUTPUT result" style="shape=parallelogram;perimeter=parallelogramPerimeter;whiteSpace=wrap;html=1;fixedSize=1;" vertex="1" parent="1">
          <mxGeometry x="300" y="400" width="120" height="60" as="geometry" />
        </mxCell>
        <mxCell id="YFhJPpaUMN8Xlp2QYYdG-3" value="END" style="ellipse;whiteSpace=wrap;html=1;" vertex="1" parent="1">
          <mxGeometry x="300" y="490" width="120" height="80" as="geometry" />
        </mxCell>
      </root>
    </mxGraphModel>
  </diagram>
  <diagram id="g448X3X3E1js743yxQW3" name="Trang-2">
    <mxGraphModel dx="1466" dy="658" grid="1" gridSize="10" guides="1" tooltips="1" connect="1" arrows="1" fold="1" page="1" pageScale="1" pageWidth="827" pageHeight="1169" math="0" shadow="0">
      <root>
        <mxCell id="0" />
        <mxCell id="1" parent="0" />
        <mxCell id="i6dpSSWZPFmzR2qWGKIX-1" value="NHẬP VÀO CHIỀU DÀI, CHIỀU RỘNG CỦA HCN. IN RA CHU VI, DIỆN TÍCH CỦA HCN" style="text;html=1;align=center;verticalAlign=middle;whiteSpace=wrap;rounded=0;" vertex="1" parent="1">
          <mxGeometry x="124" y="10" width="580" height="30" as="geometry" />
        </mxCell>
        <mxCell id="oxSgChcdmXIhEvY0OP1V-6" value="" style="edgeStyle=orthogonalEdgeStyle;rounded=0;orthogonalLoop=1;jettySize=auto;html=1;" edge="1" parent="1" source="oxSgChcdmXIhEvY0OP1V-1" target="oxSgChcdmXIhEvY0OP1V-2">
          <mxGeometry relative="1" as="geometry" />
        </mxCell>
        <mxCell id="oxSgChcdmXIhEvY0OP1V-1" value="START" style="ellipse;whiteSpace=wrap;html=1;" vertex="1" parent="1">
          <mxGeometry x="277.5" y="80" width="170" height="80" as="geometry" />
        </mxCell>
        <mxCell id="oxSgChcdmXIhEvY0OP1V-7" value="" style="edgeStyle=orthogonalEdgeStyle;rounded=0;orthogonalLoop=1;jettySize=auto;html=1;" edge="1" parent="1" source="oxSgChcdmXIhEvY0OP1V-2" target="oxSgChcdmXIhEvY0OP1V-3">
          <mxGeometry relative="1" as="geometry" />
        </mxCell>
        <mxCell id="oxSgChcdmXIhEvY0OP1V-2" value="INPUT&amp;nbsp; &amp;nbsp;chiều dài = a&amp;nbsp;&lt;div&gt;&lt;span style=&quot;white-space: pre;&quot;&gt;&#x9;&lt;span style=&quot;white-space: pre;&quot;&gt;&#x9;&lt;/span&gt;&lt;/span&gt;chiều rộng = b&lt;/div&gt;" style="shape=parallelogram;perimeter=parallelogramPerimeter;whiteSpace=wrap;html=1;fixedSize=1;" vertex="1" parent="1">
          <mxGeometry x="265" y="200" width="195" height="50" as="geometry" />
        </mxCell>
        <mxCell id="oxSgChcdmXIhEvY0OP1V-8" value="" style="edgeStyle=orthogonalEdgeStyle;rounded=0;orthogonalLoop=1;jettySize=auto;html=1;" edge="1" parent="1" source="oxSgChcdmXIhEvY0OP1V-3" target="oxSgChcdmXIhEvY0OP1V-4">
          <mxGeometry relative="1" as="geometry" />
        </mxCell>
        <mxCell id="oxSgChcdmXIhEvY0OP1V-3" value="chuvi = (a + b)*2&lt;div&gt;dientich = a*b&lt;/div&gt;" style="rounded=0;whiteSpace=wrap;html=1;" vertex="1" parent="1">
          <mxGeometry x="265" y="290" width="195" height="60" as="geometry" />
        </mxCell>
        <mxCell id="oxSgChcdmXIhEvY0OP1V-9" value="" style="edgeStyle=orthogonalEdgeStyle;rounded=0;orthogonalLoop=1;jettySize=auto;html=1;" edge="1" parent="1" source="oxSgChcdmXIhEvY0OP1V-4" target="oxSgChcdmXIhEvY0OP1V-5">
          <mxGeometry relative="1" as="geometry" />
        </mxCell>
        <mxCell id="oxSgChcdmXIhEvY0OP1V-4" value="OUTPUT chuvi, dientich" style="shape=parallelogram;perimeter=parallelogramPerimeter;whiteSpace=wrap;html=1;fixedSize=1;" vertex="1" parent="1">
          <mxGeometry x="265" y="380" width="196" height="50" as="geometry" />
        </mxCell>
        <mxCell id="oxSgChcdmXIhEvY0OP1V-5" value="END" style="ellipse;whiteSpace=wrap;html=1;" vertex="1" parent="1">
          <mxGeometry x="277.5" y="470" width="170" height="60" as="geometry" />
        </mxCell>
      </root>
    </mxGraphModel>
  </diagram>
</mxfile>
